<svg width="444" height="130" viewBox="0 0 444 130" fill="none" xmlns="http://www.w3.org/2000/svg">
<mask id="path-1-outside-1_5_42" maskUnits="userSpaceOnUse" x="0" y="0" width="444" height="130" fill="black">
<rect fill="white" width="444" height="130"/>
<path d="M1 103.753V5.81866H21.5328V86.8537H64.4342V103.753H1Z"/>
<path d="M96.5933 104.907C91.7434 104.907 87.4827 103.979 83.8113 102.124C80.1398 100.224 77.2616 97.6221 75.1766 94.3192C73.1369 90.971 72.1171 87.1704 72.1171 82.9173V82.7816C72.1171 78.3475 73.2276 74.5695 75.4485 71.4475C77.6695 68.2803 80.8877 65.7918 85.1031 63.982C89.3184 62.1721 94.4403 61.0636 100.469 60.6564L128.888 58.8918V71.2439L103.46 72.8727C99.6528 73.099 96.7519 74.0039 94.7576 75.5875C92.7632 77.1258 91.766 79.1845 91.766 81.7635V81.8993C91.766 84.5688 92.7859 86.6727 94.8256 88.211C96.8653 89.7041 99.6075 90.4507 103.052 90.4507C105.999 90.4507 108.627 89.8851 110.939 88.754C113.296 87.5776 115.132 85.994 116.446 84.0032C117.806 81.9671 118.486 79.6822 118.486 77.1485V55.0912C118.486 51.8788 117.466 49.345 115.426 47.4899C113.387 45.5896 110.418 44.6395 106.52 44.6395C102.803 44.6395 99.8568 45.4086 97.6811 46.947C95.5055 48.4853 94.1683 50.4309 93.6697 52.7837L93.5338 53.3945H75.3806L75.4485 52.5801C75.8112 48.1007 77.2843 44.1191 79.8679 40.6352C82.4968 37.1513 86.1229 34.4366 90.7462 32.491C95.4148 30.5002 100.945 29.5048 107.336 29.5048C113.636 29.5048 119.098 30.5228 123.721 32.5589C128.344 34.5497 131.925 37.3775 134.463 41.0424C137.047 44.7073 138.339 48.983 138.339 53.8696V103.753H118.486V92.894H118.078C116.718 95.3825 114.95 97.5316 112.775 99.3415C110.644 101.106 108.22 102.486 105.5 103.481C102.78 104.432 99.8115 104.907 96.5933 104.907Z"/>
<path d="M181.172 105.246C174.464 105.246 168.753 104.273 164.039 102.328C159.325 100.382 155.631 97.69 152.957 94.2513C150.328 90.7674 148.741 86.7405 148.197 82.1707L148.129 81.5599H167.506L167.642 82.1707C168.277 85.0212 169.705 87.2383 171.926 88.8218C174.147 90.4054 177.229 91.1972 181.172 91.1972C183.711 91.1972 185.864 90.9032 187.631 90.315C189.399 89.6815 190.759 88.7992 191.711 87.6681C192.708 86.5369 193.206 85.1796 193.206 83.596V83.5281C193.206 81.5825 192.504 80.0216 191.099 78.8452C189.694 77.6688 187.201 76.6734 183.62 75.859L171.246 73.28C166.532 72.2846 162.588 70.8593 159.416 69.0042C156.288 67.1039 153.931 64.7738 152.345 62.0138C150.758 59.2086 149.965 55.9961 149.965 52.3765V52.3086C149.965 47.6483 151.212 43.6214 153.705 40.228C156.197 36.8346 159.733 34.2103 164.311 32.3553C168.934 30.4549 174.328 29.5048 180.492 29.5048C186.929 29.5048 192.391 30.5454 196.878 32.6267C201.411 34.6628 204.878 37.4228 207.28 40.9067C209.728 44.3906 211.02 48.2591 211.156 52.5122V53.1909H192.866L192.798 52.6479C192.481 50.0237 191.257 47.8519 189.127 46.1326C187.042 44.368 184.164 43.4857 180.492 43.4857C178.226 43.4857 176.254 43.8024 174.577 44.4358C172.9 45.0693 171.608 45.9742 170.702 47.1506C169.795 48.2817 169.342 49.6391 169.342 51.2227V51.2906C169.342 52.5122 169.637 53.6207 170.226 54.6161C170.861 55.5663 171.903 56.4033 173.353 57.1273C174.804 57.8512 176.753 58.4846 179.201 59.0276L191.575 61.6744C199.235 63.258 204.719 65.6334 208.028 68.8006C211.382 71.9678 213.059 76.2209 213.059 81.5599V81.6278C213.059 86.3786 211.7 90.5186 208.98 94.0477C206.26 97.5769 202.498 100.337 197.694 102.328C192.934 104.273 187.427 105.246 181.172 105.246Z"/>
<path d="M256.913 129C250.25 129 244.425 128.072 239.439 126.217C234.499 124.408 230.555 121.942 227.609 118.82C224.708 115.698 222.941 112.191 222.306 108.3L222.238 107.689H241.547L241.751 108.164C242.567 109.929 244.267 111.49 246.85 112.847C249.434 114.205 252.788 114.883 256.913 114.883C262.035 114.883 265.933 113.662 268.607 111.218C271.281 108.775 272.618 105.518 272.618 101.445V90.315H272.21C270.941 92.8487 269.219 95.0431 267.043 96.8982C264.867 98.7533 262.306 100.201 259.36 101.242C256.459 102.237 253.241 102.735 249.706 102.735C243.632 102.735 238.374 101.287 233.932 98.3913C229.536 95.4956 226.136 91.3556 223.734 85.9714C221.377 80.5419 220.198 74.0718 220.198 66.561V66.4931C220.198 58.7561 221.399 52.1276 223.802 46.6076C226.249 41.0877 229.694 36.8572 234.136 33.9162C238.578 30.9753 243.881 29.5048 250.046 29.5048C253.49 29.5048 256.641 30.0703 259.496 31.2015C262.352 32.3326 264.845 33.9389 266.975 36.0201C269.151 38.1015 270.896 40.5673 272.21 43.4178H272.618V30.9979H292.471V101.717C292.471 107.101 291.021 111.829 288.12 115.901C285.264 120.019 281.162 123.231 275.814 125.539C270.511 127.846 264.21 129 256.913 129ZM256.573 88.211C259.836 88.211 262.669 87.3514 265.071 85.632C267.474 83.9127 269.332 81.4694 270.647 78.3022C272.006 75.135 272.686 71.3796 272.686 67.0361V66.9682C272.686 62.6246 272.006 58.8918 270.647 55.7699C269.332 52.6027 267.451 50.182 265.003 48.508C262.601 46.7886 259.791 45.929 256.573 45.929C253.309 45.929 250.454 46.7886 248.006 48.508C245.558 50.182 243.677 52.5801 242.363 55.702C241.048 58.824 240.391 62.5794 240.391 66.9682V67.0361C240.391 71.3796 241.048 75.135 242.363 78.3022C243.677 81.4694 245.558 83.9127 248.006 85.632C250.454 87.3514 253.309 88.211 256.573 88.211Z"/>
<path d="M305.933 103.753V30.9979H325.786V103.753H305.933ZM315.86 21.632C312.868 21.632 310.352 20.614 308.313 18.5779C306.273 16.5419 305.253 14.1212 305.253 11.316C305.253 8.46554 306.273 6.04489 308.313 4.05408C310.352 2.01803 312.868 1 315.86 1C318.851 1 321.367 2.01803 323.406 4.05408C325.446 6.04489 326.466 8.46554 326.466 11.316C326.466 14.1212 325.446 16.5419 323.406 18.5779C321.367 20.614 318.851 21.632 315.86 21.632Z"/>
<path d="M366.104 105.246C359.985 105.246 354.704 103.73 350.262 100.699C345.82 97.6674 342.398 93.3238 339.996 87.6681C337.639 82.0124 336.46 75.2481 336.46 67.3754V67.3075C336.46 59.3895 337.662 52.6253 340.064 47.0148C342.466 41.3591 345.866 37.0382 350.262 34.052C354.704 31.0205 359.985 29.5048 366.104 29.5048C369.549 29.5048 372.721 30.0703 375.622 31.2015C378.523 32.3326 381.062 33.9615 383.237 36.088C385.458 38.1693 387.226 40.6805 388.54 43.6214H388.948V5.81866H408.801V103.753H388.948V91.333H388.54C387.271 94.2287 385.549 96.7172 383.373 98.7985C381.198 100.835 378.659 102.418 375.758 103.549C372.857 104.68 369.639 105.246 366.104 105.246ZM372.767 88.8218C375.985 88.8218 378.818 87.9622 381.266 86.2428C383.713 84.4783 385.617 81.9898 386.977 78.7773C388.336 75.5649 389.016 71.7642 389.016 67.3754V67.3075C389.016 62.9187 388.314 59.1407 386.909 55.9735C385.549 52.761 383.645 50.2952 381.198 48.5758C378.795 46.8112 375.985 45.929 372.767 45.929C369.458 45.929 366.602 46.7886 364.2 48.508C361.798 50.2273 359.939 52.6932 358.625 55.9056C357.311 59.0728 356.653 62.8735 356.653 67.3075V67.3754C356.653 71.7642 357.288 75.5649 358.557 78.7773C359.871 81.9898 361.73 84.4783 364.132 86.2428C366.58 87.9622 369.458 88.8218 372.767 88.8218Z"/>
<path d="M422.467 103.753V30.9979H442.32V103.753H422.467ZM432.394 21.632C429.402 21.632 426.886 20.614 424.847 18.5779C422.807 16.5419 421.787 14.1212 421.787 11.316C421.787 8.46554 422.807 6.04489 424.847 4.05408C426.886 2.01803 429.402 1 432.394 1C435.385 1 437.901 2.01803 439.94 4.05408C441.98 6.04489 443 8.46554 443 11.316C443 14.1212 441.98 16.5419 439.94 18.5779C437.901 20.614 435.385 21.632 432.394 21.632Z"/>
</mask>
<path d="M1 103.753V5.81866H21.5328V86.8537H64.4342V103.753H1Z" fill="white"/>
<path d="M96.5933 104.907C91.7434 104.907 87.4827 103.979 83.8113 102.124C80.1398 100.224 77.2616 97.6221 75.1766 94.3192C73.1369 90.971 72.1171 87.1704 72.1171 82.9173V82.7816C72.1171 78.3475 73.2276 74.5695 75.4485 71.4475C77.6695 68.2803 80.8877 65.7918 85.1031 63.982C89.3184 62.1721 94.4403 61.0636 100.469 60.6564L128.888 58.8918V71.2439L103.46 72.8727C99.6528 73.099 96.7519 74.0039 94.7576 75.5875C92.7632 77.1258 91.766 79.1845 91.766 81.7635V81.8993C91.766 84.5688 92.7859 86.6727 94.8256 88.211C96.8653 89.7041 99.6075 90.4507 103.052 90.4507C105.999 90.4507 108.627 89.8851 110.939 88.754C113.296 87.5776 115.132 85.994 116.446 84.0032C117.806 81.9671 118.486 79.6822 118.486 77.1485V55.0912C118.486 51.8788 117.466 49.345 115.426 47.4899C113.387 45.5896 110.418 44.6395 106.52 44.6395C102.803 44.6395 99.8568 45.4086 97.6811 46.947C95.5055 48.4853 94.1683 50.4309 93.6697 52.7837L93.5338 53.3945H75.3806L75.4485 52.5801C75.8112 48.1007 77.2843 44.1191 79.8679 40.6352C82.4968 37.1513 86.1229 34.4366 90.7462 32.491C95.4148 30.5002 100.945 29.5048 107.336 29.5048C113.636 29.5048 119.098 30.5228 123.721 32.5589C128.344 34.5497 131.925 37.3775 134.463 41.0424C137.047 44.7073 138.339 48.983 138.339 53.8696V103.753H118.486V92.894H118.078C116.718 95.3825 114.95 97.5316 112.775 99.3415C110.644 101.106 108.22 102.486 105.5 103.481C102.78 104.432 99.8115 104.907 96.5933 104.907Z" fill="white"/>
<path d="M181.172 105.246C174.464 105.246 168.753 104.273 164.039 102.328C159.325 100.382 155.631 97.69 152.957 94.2513C150.328 90.7674 148.741 86.7405 148.197 82.1707L148.129 81.5599H167.506L167.642 82.1707C168.277 85.0212 169.705 87.2383 171.926 88.8218C174.147 90.4054 177.229 91.1972 181.172 91.1972C183.711 91.1972 185.864 90.9032 187.631 90.315C189.399 89.6815 190.759 88.7992 191.711 87.6681C192.708 86.5369 193.206 85.1796 193.206 83.596V83.5281C193.206 81.5825 192.504 80.0216 191.099 78.8452C189.694 77.6688 187.201 76.6734 183.62 75.859L171.246 73.28C166.532 72.2846 162.588 70.8593 159.416 69.0042C156.288 67.1039 153.931 64.7738 152.345 62.0138C150.758 59.2086 149.965 55.9961 149.965 52.3765V52.3086C149.965 47.6483 151.212 43.6214 153.705 40.228C156.197 36.8346 159.733 34.2103 164.311 32.3553C168.934 30.4549 174.328 29.5048 180.492 29.5048C186.929 29.5048 192.391 30.5454 196.878 32.6267C201.411 34.6628 204.878 37.4228 207.28 40.9067C209.728 44.3906 211.02 48.2591 211.156 52.5122V53.1909H192.866L192.798 52.6479C192.481 50.0237 191.257 47.8519 189.127 46.1326C187.042 44.368 184.164 43.4857 180.492 43.4857C178.226 43.4857 176.254 43.8024 174.577 44.4358C172.9 45.0693 171.608 45.9742 170.702 47.1506C169.795 48.2817 169.342 49.6391 169.342 51.2227V51.2906C169.342 52.5122 169.637 53.6207 170.226 54.6161C170.861 55.5663 171.903 56.4033 173.353 57.1273C174.804 57.8512 176.753 58.4846 179.201 59.0276L191.575 61.6744C199.235 63.258 204.719 65.6334 208.028 68.8006C211.382 71.9678 213.059 76.2209 213.059 81.5599V81.6278C213.059 86.3786 211.7 90.5186 208.98 94.0477C206.26 97.5769 202.498 100.337 197.694 102.328C192.934 104.273 187.427 105.246 181.172 105.246Z" fill="white"/>
<path d="M256.913 129C250.25 129 244.425 128.072 239.439 126.217C234.499 124.408 230.555 121.942 227.609 118.82C224.708 115.698 222.941 112.191 222.306 108.3L222.238 107.689H241.547L241.751 108.164C242.567 109.929 244.267 111.49 246.85 112.847C249.434 114.205 252.788 114.883 256.913 114.883C262.035 114.883 265.933 113.662 268.607 111.218C271.281 108.775 272.618 105.518 272.618 101.445V90.315H272.21C270.941 92.8487 269.219 95.0431 267.043 96.8982C264.867 98.7533 262.306 100.201 259.36 101.242C256.459 102.237 253.241 102.735 249.706 102.735C243.632 102.735 238.374 101.287 233.932 98.3913C229.536 95.4956 226.136 91.3556 223.734 85.9714C221.377 80.5419 220.198 74.0718 220.198 66.561V66.4931C220.198 58.7561 221.399 52.1276 223.802 46.6076C226.249 41.0877 229.694 36.8572 234.136 33.9162C238.578 30.9753 243.881 29.5048 250.046 29.5048C253.49 29.5048 256.641 30.0703 259.496 31.2015C262.352 32.3326 264.845 33.9389 266.975 36.0201C269.151 38.1015 270.896 40.5673 272.21 43.4178H272.618V30.9979H292.471V101.717C292.471 107.101 291.021 111.829 288.12 115.901C285.264 120.019 281.162 123.231 275.814 125.539C270.511 127.846 264.21 129 256.913 129ZM256.573 88.211C259.836 88.211 262.669 87.3514 265.071 85.632C267.474 83.9127 269.332 81.4694 270.647 78.3022C272.006 75.135 272.686 71.3796 272.686 67.0361V66.9682C272.686 62.6246 272.006 58.8918 270.647 55.7699C269.332 52.6027 267.451 50.182 265.003 48.508C262.601 46.7886 259.791 45.929 256.573 45.929C253.309 45.929 250.454 46.7886 248.006 48.508C245.558 50.182 243.677 52.5801 242.363 55.702C241.048 58.824 240.391 62.5794 240.391 66.9682V67.0361C240.391 71.3796 241.048 75.135 242.363 78.3022C243.677 81.4694 245.558 83.9127 248.006 85.632C250.454 87.3514 253.309 88.211 256.573 88.211Z" fill="white"/>
<path d="M305.933 103.753V30.9979H325.786V103.753H305.933ZM315.86 21.632C312.868 21.632 310.352 20.614 308.313 18.5779C306.273 16.5419 305.253 14.1212 305.253 11.316C305.253 8.46554 306.273 6.04489 308.313 4.05408C310.352 2.01803 312.868 1 315.86 1C318.851 1 321.367 2.01803 323.406 4.05408C325.446 6.04489 326.466 8.46554 326.466 11.316C326.466 14.1212 325.446 16.5419 323.406 18.5779C321.367 20.614 318.851 21.632 315.86 21.632Z" fill="white"/>
<path d="M366.104 105.246C359.985 105.246 354.704 103.73 350.262 100.699C345.82 97.6674 342.398 93.3238 339.996 87.6681C337.639 82.0124 336.46 75.2481 336.46 67.3754V67.3075C336.46 59.3895 337.662 52.6253 340.064 47.0148C342.466 41.3591 345.866 37.0382 350.262 34.052C354.704 31.0205 359.985 29.5048 366.104 29.5048C369.549 29.5048 372.721 30.0703 375.622 31.2015C378.523 32.3326 381.062 33.9615 383.237 36.088C385.458 38.1693 387.226 40.6805 388.54 43.6214H388.948V5.81866H408.801V103.753H388.948V91.333H388.54C387.271 94.2287 385.549 96.7172 383.373 98.7985C381.198 100.835 378.659 102.418 375.758 103.549C372.857 104.68 369.639 105.246 366.104 105.246ZM372.767 88.8218C375.985 88.8218 378.818 87.9622 381.266 86.2428C383.713 84.4783 385.617 81.9898 386.977 78.7773C388.336 75.5649 389.016 71.7642 389.016 67.3754V67.3075C389.016 62.9187 388.314 59.1407 386.909 55.9735C385.549 52.761 383.645 50.2952 381.198 48.5758C378.795 46.8112 375.985 45.929 372.767 45.929C369.458 45.929 366.602 46.7886 364.2 48.508C361.798 50.2273 359.939 52.6932 358.625 55.9056C357.311 59.0728 356.653 62.8735 356.653 67.3075V67.3754C356.653 71.7642 357.288 75.5649 358.557 78.7773C359.871 81.9898 361.73 84.4783 364.132 86.2428C366.58 87.9622 369.458 88.8218 372.767 88.8218Z" fill="white"/>
<path d="M422.467 103.753V30.9979H442.32V103.753H422.467ZM432.394 21.632C429.402 21.632 426.886 20.614 424.847 18.5779C422.807 16.5419 421.787 14.1212 421.787 11.316C421.787 8.46554 422.807 6.04489 424.847 4.05408C426.886 2.01803 429.402 1 432.394 1C435.385 1 437.901 2.01803 439.94 4.05408C441.98 6.04489 443 8.46554 443 11.316C443 14.1212 441.98 16.5419 439.94 18.5779C437.901 20.614 435.385 21.632 432.394 21.632Z" fill="white"/>
<path d="M1 103.753V5.81866H21.5328V86.8537H64.4342V103.753H1Z" stroke="url(#paint0_linear_5_42)" strokeWidth="2" mask="url(#path-1-outside-1_5_42)"/>
<path d="M96.5933 104.907C91.7434 104.907 87.4827 103.979 83.8113 102.124C80.1398 100.224 77.2616 97.6221 75.1766 94.3192C73.1369 90.971 72.1171 87.1704 72.1171 82.9173V82.7816C72.1171 78.3475 73.2276 74.5695 75.4485 71.4475C77.6695 68.2803 80.8877 65.7918 85.1031 63.982C89.3184 62.1721 94.4403 61.0636 100.469 60.6564L128.888 58.8918V71.2439L103.46 72.8727C99.6528 73.099 96.7519 74.0039 94.7576 75.5875C92.7632 77.1258 91.766 79.1845 91.766 81.7635V81.8993C91.766 84.5688 92.7859 86.6727 94.8256 88.211C96.8653 89.7041 99.6075 90.4507 103.052 90.4507C105.999 90.4507 108.627 89.8851 110.939 88.754C113.296 87.5776 115.132 85.994 116.446 84.0032C117.806 81.9671 118.486 79.6822 118.486 77.1485V55.0912C118.486 51.8788 117.466 49.345 115.426 47.4899C113.387 45.5896 110.418 44.6395 106.52 44.6395C102.803 44.6395 99.8568 45.4086 97.6811 46.947C95.5055 48.4853 94.1683 50.4309 93.6697 52.7837L93.5338 53.3945H75.3806L75.4485 52.5801C75.8112 48.1007 77.2843 44.1191 79.8679 40.6352C82.4968 37.1513 86.1229 34.4366 90.7462 32.491C95.4148 30.5002 100.945 29.5048 107.336 29.5048C113.636 29.5048 119.098 30.5228 123.721 32.5589C128.344 34.5497 131.925 37.3775 134.463 41.0424C137.047 44.7073 138.339 48.983 138.339 53.8696V103.753H118.486V92.894H118.078C116.718 95.3825 114.95 97.5316 112.775 99.3415C110.644 101.106 108.22 102.486 105.5 103.481C102.78 104.432 99.8115 104.907 96.5933 104.907Z" stroke="url(#paint1_linear_5_42)" strokeWidth="2" mask="url(#path-1-outside-1_5_42)"/>
<path d="M181.172 105.246C174.464 105.246 168.753 104.273 164.039 102.328C159.325 100.382 155.631 97.69 152.957 94.2513C150.328 90.7674 148.741 86.7405 148.197 82.1707L148.129 81.5599H167.506L167.642 82.1707C168.277 85.0212 169.705 87.2383 171.926 88.8218C174.147 90.4054 177.229 91.1972 181.172 91.1972C183.711 91.1972 185.864 90.9032 187.631 90.315C189.399 89.6815 190.759 88.7992 191.711 87.6681C192.708 86.5369 193.206 85.1796 193.206 83.596V83.5281C193.206 81.5825 192.504 80.0216 191.099 78.8452C189.694 77.6688 187.201 76.6734 183.62 75.859L171.246 73.28C166.532 72.2846 162.588 70.8593 159.416 69.0042C156.288 67.1039 153.931 64.7738 152.345 62.0138C150.758 59.2086 149.965 55.9961 149.965 52.3765V52.3086C149.965 47.6483 151.212 43.6214 153.705 40.228C156.197 36.8346 159.733 34.2103 164.311 32.3553C168.934 30.4549 174.328 29.5048 180.492 29.5048C186.929 29.5048 192.391 30.5454 196.878 32.6267C201.411 34.6628 204.878 37.4228 207.28 40.9067C209.728 44.3906 211.02 48.2591 211.156 52.5122V53.1909H192.866L192.798 52.6479C192.481 50.0237 191.257 47.8519 189.127 46.1326C187.042 44.368 184.164 43.4857 180.492 43.4857C178.226 43.4857 176.254 43.8024 174.577 44.4358C172.9 45.0693 171.608 45.9742 170.702 47.1506C169.795 48.2817 169.342 49.6391 169.342 51.2227V51.2906C169.342 52.5122 169.637 53.6207 170.226 54.6161C170.861 55.5663 171.903 56.4033 173.353 57.1273C174.804 57.8512 176.753 58.4846 179.201 59.0276L191.575 61.6744C199.235 63.258 204.719 65.6334 208.028 68.8006C211.382 71.9678 213.059 76.2209 213.059 81.5599V81.6278C213.059 86.3786 211.7 90.5186 208.98 94.0477C206.26 97.5769 202.498 100.337 197.694 102.328C192.934 104.273 187.427 105.246 181.172 105.246Z" stroke="url(#paint2_linear_5_42)" strokeWidth="2" mask="url(#path-1-outside-1_5_42)"/>
<path d="M256.913 129C250.25 129 244.425 128.072 239.439 126.217C234.499 124.408 230.555 121.942 227.609 118.82C224.708 115.698 222.941 112.191 222.306 108.3L222.238 107.689H241.547L241.751 108.164C242.567 109.929 244.267 111.49 246.85 112.847C249.434 114.205 252.788 114.883 256.913 114.883C262.035 114.883 265.933 113.662 268.607 111.218C271.281 108.775 272.618 105.518 272.618 101.445V90.315H272.21C270.941 92.8487 269.219 95.0431 267.043 96.8982C264.867 98.7533 262.306 100.201 259.36 101.242C256.459 102.237 253.241 102.735 249.706 102.735C243.632 102.735 238.374 101.287 233.932 98.3913C229.536 95.4956 226.136 91.3556 223.734 85.9714C221.377 80.5419 220.198 74.0718 220.198 66.561V66.4931C220.198 58.7561 221.399 52.1276 223.802 46.6076C226.249 41.0877 229.694 36.8572 234.136 33.9162C238.578 30.9753 243.881 29.5048 250.046 29.5048C253.49 29.5048 256.641 30.0703 259.496 31.2015C262.352 32.3326 264.845 33.9389 266.975 36.0201C269.151 38.1015 270.896 40.5673 272.21 43.4178H272.618V30.9979H292.471V101.717C292.471 107.101 291.021 111.829 288.12 115.901C285.264 120.019 281.162 123.231 275.814 125.539C270.511 127.846 264.21 129 256.913 129ZM256.573 88.211C259.836 88.211 262.669 87.3514 265.071 85.632C267.474 83.9127 269.332 81.4694 270.647 78.3022C272.006 75.135 272.686 71.3796 272.686 67.0361V66.9682C272.686 62.6246 272.006 58.8918 270.647 55.7699C269.332 52.6027 267.451 50.182 265.003 48.508C262.601 46.7886 259.791 45.929 256.573 45.929C253.309 45.929 250.454 46.7886 248.006 48.508C245.558 50.182 243.677 52.5801 242.363 55.702C241.048 58.824 240.391 62.5794 240.391 66.9682V67.0361C240.391 71.3796 241.048 75.135 242.363 78.3022C243.677 81.4694 245.558 83.9127 248.006 85.632C250.454 87.3514 253.309 88.211 256.573 88.211Z" stroke="url(#paint3_linear_5_42)" strokeWidth="2" mask="url(#path-1-outside-1_5_42)"/>
<path d="M305.933 103.753V30.9979H325.786V103.753H305.933ZM315.86 21.632C312.868 21.632 310.352 20.614 308.313 18.5779C306.273 16.5419 305.253 14.1212 305.253 11.316C305.253 8.46554 306.273 6.04489 308.313 4.05408C310.352 2.01803 312.868 1 315.86 1C318.851 1 321.367 2.01803 323.406 4.05408C325.446 6.04489 326.466 8.46554 326.466 11.316C326.466 14.1212 325.446 16.5419 323.406 18.5779C321.367 20.614 318.851 21.632 315.86 21.632Z" stroke="url(#paint4_linear_5_42)" strokeWidth="2" mask="url(#path-1-outside-1_5_42)"/>
<path d="M366.104 105.246C359.985 105.246 354.704 103.73 350.262 100.699C345.82 97.6674 342.398 93.3238 339.996 87.6681C337.639 82.0124 336.46 75.2481 336.46 67.3754V67.3075C336.46 59.3895 337.662 52.6253 340.064 47.0148C342.466 41.3591 345.866 37.0382 350.262 34.052C354.704 31.0205 359.985 29.5048 366.104 29.5048C369.549 29.5048 372.721 30.0703 375.622 31.2015C378.523 32.3326 381.062 33.9615 383.237 36.088C385.458 38.1693 387.226 40.6805 388.54 43.6214H388.948V5.81866H408.801V103.753H388.948V91.333H388.54C387.271 94.2287 385.549 96.7172 383.373 98.7985C381.198 100.835 378.659 102.418 375.758 103.549C372.857 104.68 369.639 105.246 366.104 105.246ZM372.767 88.8218C375.985 88.8218 378.818 87.9622 381.266 86.2428C383.713 84.4783 385.617 81.9898 386.977 78.7773C388.336 75.5649 389.016 71.7642 389.016 67.3754V67.3075C389.016 62.9187 388.314 59.1407 386.909 55.9735C385.549 52.761 383.645 50.2952 381.198 48.5758C378.795 46.8112 375.985 45.929 372.767 45.929C369.458 45.929 366.602 46.7886 364.2 48.508C361.798 50.2273 359.939 52.6932 358.625 55.9056C357.311 59.0728 356.653 62.8735 356.653 67.3075V67.3754C356.653 71.7642 357.288 75.5649 358.557 78.7773C359.871 81.9898 361.73 84.4783 364.132 86.2428C366.58 87.9622 369.458 88.8218 372.767 88.8218Z" stroke="url(#paint5_linear_5_42)" strokeWidth="2" mask="url(#path-1-outside-1_5_42)"/>
<path d="M422.467 103.753V30.9979H442.32V103.753H422.467ZM432.394 21.632C429.402 21.632 426.886 20.614 424.847 18.5779C422.807 16.5419 421.787 14.1212 421.787 11.316C421.787 8.46554 422.807 6.04489 424.847 4.05408C426.886 2.01803 429.402 1 432.394 1C435.385 1 437.901 2.01803 439.94 4.05408C441.98 6.04489 443 8.46554 443 11.316C443 14.1212 441.98 16.5419 439.94 18.5779C437.901 20.614 435.385 21.632 432.394 21.632Z" stroke="url(#paint6_linear_5_42)" strokeWidth="2" mask="url(#path-1-outside-1_5_42)"/>
<defs>
<linearGradient id="paint0_linear_5_42" x1="10.5144" y1="11.8026" x2="383.69" y2="119.074" gradientUnits="userSpaceOnUse">
<stop stop-color="#C8C8C8"/>
<stop offset="1" stop-color="#DCDCDC" stop-opacity="0.17"/>
</linearGradient>
<linearGradient id="paint1_linear_5_42" x1="10.5144" y1="11.8026" x2="383.69" y2="119.074" gradientUnits="userSpaceOnUse">
<stop stop-color="#C8C8C8"/>
<stop offset="1" stop-color="#DCDCDC" stop-opacity="0.17"/>
</linearGradient>
<linearGradient id="paint2_linear_5_42" x1="10.5144" y1="11.8026" x2="383.69" y2="119.074" gradientUnits="userSpaceOnUse">
<stop stop-color="#C8C8C8"/>
<stop offset="1" stop-color="#DCDCDC" stop-opacity="0.17"/>
</linearGradient>
<linearGradient id="paint3_linear_5_42" x1="10.5144" y1="11.8026" x2="383.69" y2="119.074" gradientUnits="userSpaceOnUse">
<stop stop-color="#C8C8C8"/>
<stop offset="1" stop-color="#DCDCDC" stop-opacity="0.17"/>
</linearGradient>
<linearGradient id="paint4_linear_5_42" x1="10.5144" y1="11.8026" x2="383.69" y2="119.074" gradientUnits="userSpaceOnUse">
<stop stop-color="#C8C8C8"/>
<stop offset="1" stop-color="#DCDCDC" stop-opacity="0.17"/>
</linearGradient>
<linearGradient id="paint5_linear_5_42" x1="10.5144" y1="11.8026" x2="383.69" y2="119.074" gradientUnits="userSpaceOnUse">
<stop stop-color="#C8C8C8"/>
<stop offset="1" stop-color="#DCDCDC" stop-opacity="0.17"/>
</linearGradient>
<linearGradient id="paint6_linear_5_42" x1="10.5144" y1="11.8026" x2="383.69" y2="119.074" gradientUnits="userSpaceOnUse">
<stop stop-color="#C8C8C8"/>
<stop offset="1" stop-color="#DCDCDC" stop-opacity="0.17"/>
</linearGradient>
</defs>
</svg>
